<svg width="261" height="248" viewBox="0 0 261 248" fill="none" xmlns="http://www.w3.org/2000/svg">
<g filter="url(#filter0_d)">
<path d="M237.484 73.2152H204.516C202.577 73.2152 201 74.7923 201 76.7309V98.4709C201 100.409 202.577 101.987 204.516 101.987H216.351V106.441H214.586C213.939 106.441 213.415 106.966 213.415 107.613C213.415 108.26 213.939 108.785 214.586 108.785H227.414C228.061 108.785 228.585 108.26 228.585 107.613C228.585 106.966 228.061 106.441 227.414 106.441H225.649V101.987H237.484C239.423 101.987 241 100.409 241 98.4709V76.7309C241 74.7923 239.423 73.2152 237.484 73.2152ZM223.305 106.441H218.695V101.987H223.305V106.441ZM238.656 98.471C238.656 99.1172 238.131 99.6429 237.484 99.6429H204.516C203.869 99.6429 203.344 99.1172 203.344 98.471V96.6895H238.656V98.471ZM238.656 94.3458H203.344V76.7309C203.344 76.0847 203.869 75.559 204.516 75.559H237.484C238.131 75.559 238.656 76.0847 238.656 76.7309V94.3458Z" fill="#FFFAF0"/>
<path d="M215.24 87.9447L212.066 85.7774L215.24 83.6102C215.775 83.2452 215.912 82.5161 215.547 81.9816C215.183 81.4471 214.453 81.3096 213.919 81.6745L209.327 84.8095C209.007 85.0279 208.816 85.3902 208.816 85.7773C208.816 86.1645 209.007 86.527 209.327 86.7453L213.919 89.8804C214.121 90.0184 214.351 90.0845 214.578 90.0845C214.953 90.0845 215.32 89.9056 215.547 89.5733C215.912 89.0388 215.775 88.3096 215.24 87.9447Z" fill="#FFFAF0"/>
<path d="M232.673 84.8097L228.081 81.6746C227.547 81.3098 226.818 81.4473 226.453 81.9817C226.088 82.5162 226.225 83.2454 226.76 83.6103L229.934 85.7776L226.76 87.9447C226.225 88.3096 226.088 89.0387 226.453 89.5733C226.68 89.9057 227.047 90.0845 227.422 90.0845C227.649 90.0845 227.879 90.0184 228.081 89.8804L232.673 86.7453C232.993 86.527 233.184 86.1647 233.184 85.7775C233.184 85.3903 232.993 85.0281 232.673 84.8097Z" fill="#FFFAF0"/>
<path d="M223.926 80.5716C223.362 80.2545 222.648 80.4546 222.331 81.0189L217.626 89.3879C217.309 89.952 217.509 90.6664 218.074 90.9836C218.255 91.0857 218.452 91.1341 218.647 91.1341C219.056 91.1341 219.454 90.9189 219.669 90.5363L224.374 82.1673C224.691 81.6032 224.491 80.8888 223.926 80.5716Z" fill="#FFFAF0"/>
</g>
<g clip-path="url(#clip0)" filter="url(#filter1_d)">
<path d="M84.3869 23.4354C84.0632 23.4354 83.8008 23.6977 83.8008 24.0214V24.5062C83.8008 24.8299 84.0632 25.0923 84.3869 25.0923C84.7105 25.0923 84.9729 24.8299 84.9729 24.5062V24.0214C84.9729 23.6977 84.7105 23.4354 84.3869 23.4354Z" fill="#FFF0F0"/>
<path d="M84.3869 34.9077C84.0632 34.9077 83.8008 35.1701 83.8008 35.4938V35.9786C83.8008 36.3023 84.0632 36.5646 84.3869 36.5646C84.7105 36.5646 84.9729 36.3023 84.9729 35.9786V35.4938C84.9729 35.1701 84.7105 34.9077 84.3869 34.9077Z" fill="#FFF0F0"/>
<path d="M90.6517 19.2979H89.9322C89.6086 19.2979 89.3462 19.5603 89.3462 19.8839C89.3462 20.2076 89.6086 20.47 89.9322 20.47H90.6517C91.6118 20.47 92.3928 21.251 92.3928 22.2111V24.5062C92.3928 24.8299 92.6552 25.0923 92.9789 25.0923C93.3025 25.0923 93.5649 24.8299 93.5649 24.5062V22.2111C93.5649 20.6047 92.2581 19.2979 90.6517 19.2979Z" fill="#FFF0F0"/>
<path d="M88.0448 25.6849C87.6549 25.6849 87.3378 25.3677 87.3378 24.9779V23.0407C87.3378 22.717 87.0754 22.4547 86.7517 22.4547C86.4281 22.4547 86.1657 22.717 86.1657 23.0407V24.9779C86.1657 26.0141 87.0087 26.857 88.0448 26.857C88.3685 26.857 88.6309 26.5946 88.6309 26.271C88.6309 25.9473 88.3686 25.6849 88.0448 25.6849Z" fill="#FFF0F0"/>
<path d="M92.9789 34.9077C92.6552 34.9077 92.3928 35.1701 92.3928 35.4938V37.7889C92.3928 38.749 91.6118 39.53 90.6517 39.53H89.9322C89.6086 39.53 89.3462 39.7924 89.3462 40.1161C89.3462 40.4397 89.6086 40.7021 89.9322 40.7021H90.6517C92.2581 40.7021 93.5649 39.3953 93.5649 37.7889V35.4938C93.5649 35.1701 93.3025 34.9077 92.9789 34.9077Z" fill="#FFF0F0"/>
<path d="M88.0448 33.143C87.0087 33.143 86.1657 33.986 86.1657 35.0221V36.9593C86.1657 37.283 86.4281 37.5453 86.7517 37.5453C87.0754 37.5453 87.3378 37.283 87.3378 36.9593V35.0221C87.3378 34.6322 87.655 34.3151 88.0448 34.3151C88.3685 34.3151 88.6309 34.0527 88.6309 33.729C88.6309 33.4054 88.3686 33.143 88.0448 33.143Z" fill="#FFF0F0"/>
<path d="M100.309 24.6522C99.9853 24.6522 99.723 24.9146 99.723 25.2382C99.723 25.5619 99.9853 25.8243 100.309 25.8243H101.212C101.535 25.8243 101.798 25.5619 101.798 25.2382C101.798 24.9146 101.535 24.6522 101.212 24.6522H100.309Z" fill="#FFF0F0"/>
<path d="M105.912 24.6522H103.709C103.386 24.6522 103.123 24.9146 103.123 25.2382C103.123 25.5619 103.386 25.8243 103.709 25.8243H106.155C106.311 25.8243 106.46 25.7625 106.569 25.6526L109.881 22.341C110.049 22.3975 110.228 22.4294 110.414 22.4294C111.338 22.4294 112.09 21.6775 112.09 20.7533C112.09 19.8291 111.338 19.0772 110.414 19.0772C109.49 19.0772 108.738 19.8291 108.738 20.7533C108.738 21.061 108.823 21.3486 108.968 21.5967L105.912 24.6522ZM110.414 20.2491C110.692 20.2491 110.918 20.4753 110.918 20.7532C110.918 21.0311 110.692 21.2573 110.414 21.2573C110.136 21.2573 109.91 21.0311 109.91 20.7532C109.91 20.4753 110.136 20.2491 110.414 20.2491Z" fill="#FFF0F0"/>
<path d="M114.324 29.9886C113.606 29.9886 112.994 30.443 112.756 31.0787H96.6101V29.2372H109.023C109.178 29.2372 109.327 29.1755 109.437 29.0656L110.705 27.7979C110.88 27.8608 111.069 27.8968 111.266 27.8968C112.19 27.8968 112.942 27.1449 112.942 26.2206C112.942 25.2964 112.19 24.5445 111.266 24.5445C110.342 24.5445 109.59 25.2964 109.59 26.2206C109.59 26.5181 109.669 26.7972 109.805 27.0397L108.78 28.0651H96.6101V25.8241H97.8115C98.1352 25.8241 98.3976 25.5617 98.3976 25.2381C98.3976 24.9144 98.1352 24.652 97.8115 24.652H96.6101V22.2216H101.944C102.1 22.2216 102.249 22.1598 102.359 22.0499L103.825 20.5836C103.994 20.6414 104.175 20.6741 104.364 20.6741C105.288 20.6741 106.04 19.9222 106.04 18.998C106.04 18.0738 105.288 17.3219 104.364 17.3219C103.44 17.3219 102.688 18.0738 102.688 18.998C102.688 19.3036 102.771 19.5894 102.915 19.8364L101.702 21.0495H96.6101V16.9247C96.6101 14.7329 94.8269 12.9498 92.6352 12.9498C91.1146 12.9498 89.7606 13.7998 89.0919 15.12C88.6682 14.9701 88.2194 14.8923 87.7674 14.8923C85.7313 14.8923 84.0494 16.4345 83.8267 18.412H83.5001C81.3898 18.412 79.673 20.1289 79.673 22.2391C79.673 22.9885 79.8916 23.7105 80.2913 24.3246C79.2464 24.6196 78.2975 25.2006 77.5504 26.0149C76.5506 27.1048 76 28.5201 76 30C76 31.4799 76.5506 32.8952 77.5504 33.9849C78.2975 34.7993 79.2464 35.3802 80.2913 35.6753C79.8916 36.2894 79.673 37.0114 79.673 37.7607C79.673 39.871 81.3898 41.5878 83.5001 41.5878H83.8267C84.0495 43.5653 85.7313 45.1076 87.7674 45.1076C88.2194 45.1076 88.6682 45.0298 89.0919 44.8799C89.7606 46.2001 91.1146 47.0501 92.6352 47.0501C94.8269 47.0501 96.6101 45.2669 96.6101 43.0751V38.9502H101.702L102.915 40.1633C102.771 40.4103 102.688 40.6961 102.688 41.0017C102.688 41.9259 103.44 42.6778 104.364 42.6778C105.288 42.6778 106.04 41.9259 106.04 41.0017C106.04 40.0775 105.288 39.3256 104.364 39.3256C104.175 39.3256 103.994 39.3583 103.825 39.416L102.359 37.9498C102.249 37.8399 102.1 37.7781 101.944 37.7781H96.6101V35.3478H98.6848C99.0085 35.3478 99.2708 35.0854 99.2708 34.7618C99.2708 34.4381 99.0085 34.1757 98.6848 34.1757H96.6101V32.2508H112.755C112.994 32.8864 113.606 33.3409 114.324 33.3409C115.248 33.3409 116 32.589 116 31.6647C116 30.7406 115.248 29.9886 114.324 29.9886ZM111.266 25.7167C111.544 25.7167 111.77 25.9428 111.77 26.2207C111.77 26.4987 111.544 26.7248 111.266 26.7248C110.988 26.7248 110.762 26.4987 110.762 26.2207C110.762 25.9428 110.988 25.7167 111.266 25.7167ZM104.364 18.4941C104.642 18.4941 104.868 18.7202 104.868 18.9982C104.868 19.2761 104.642 19.5022 104.364 19.5022C104.086 19.5022 103.86 19.2761 103.86 18.9982C103.86 18.7202 104.086 18.4941 104.364 18.4941ZM104.868 41.0018C104.868 41.2798 104.642 41.5059 104.364 41.5059C104.086 41.5059 103.86 41.2798 103.86 41.0018C103.86 40.7239 104.086 40.4978 104.364 40.4978C104.642 40.4978 104.868 40.7239 104.868 41.0018ZM95.438 43.0753C95.438 44.6208 94.1806 45.8782 92.6352 45.8782C91.4071 45.8782 90.3331 45.0921 89.9628 43.9222C89.9097 43.7545 89.7842 43.6197 89.6209 43.5546C89.4575 43.4895 89.2737 43.5013 89.1199 43.5866C88.7081 43.8149 88.2403 43.9356 87.7674 43.9356C86.2265 43.9356 84.9729 42.682 84.9729 41.1412V38.473C84.9729 38.1494 84.7105 37.887 84.3869 37.887C84.0632 37.887 83.8009 38.1494 83.8009 38.473V40.4158H83.5001C82.0361 40.4158 80.8451 39.2248 80.8451 37.7608C80.8451 36.9799 81.1875 36.2417 81.7845 35.7354C81.9645 35.5827 82.0353 35.337 81.9643 35.112C81.8933 34.887 81.6942 34.7265 81.4592 34.7049C80.2916 34.5975 79.2102 34.0603 78.4141 33.1926C77.6131 32.3196 77.1721 31.1857 77.1721 30C77.1721 28.8143 77.6131 27.6804 78.4141 26.8074C79.2102 25.9397 80.2916 25.4025 81.4592 25.2951C81.6942 25.2735 81.8933 25.113 81.9643 24.888C82.0354 24.663 81.9645 24.4173 81.7845 24.2646C81.1875 23.7584 80.8451 23.0201 80.8451 22.2392C80.8451 20.7752 82.0361 19.5842 83.5001 19.5842H83.8009V21.527C83.8009 21.8506 84.0632 22.113 84.3869 22.113C84.7105 22.113 84.9729 21.8506 84.9729 21.527V18.8588C84.9729 17.318 86.2265 16.0644 87.7674 16.0644C88.2403 16.0644 88.7081 16.1851 89.1199 16.4134C89.2736 16.4986 89.4575 16.5104 89.6209 16.4454C89.7842 16.3803 89.9097 16.2455 89.9628 16.0778C90.3331 14.9078 91.4071 14.1218 92.6352 14.1218C94.1806 14.1218 95.438 15.3792 95.438 16.9247V43.0753ZM114.324 32.1689C114.046 32.1689 113.82 31.9427 113.82 31.6647C113.82 31.3868 114.046 31.1607 114.324 31.1607C114.602 31.1607 114.828 31.3868 114.828 31.6647C114.828 31.9427 114.602 32.1689 114.324 32.1689Z" fill="#FFF0F0"/>
<path d="M110.414 37.5706C110.228 37.5706 110.049 37.6025 109.881 37.659L106.57 34.3474C106.46 34.2375 106.311 34.1757 106.155 34.1757H101.182C100.859 34.1757 100.596 34.4381 100.596 34.7618C100.596 35.0854 100.859 35.3478 101.182 35.3478H105.912L108.968 38.4033C108.823 38.6514 108.738 38.939 108.738 39.2467C108.738 40.1709 109.49 40.9228 110.414 40.9228C111.338 40.9228 112.09 40.1709 112.09 39.2467C112.09 38.3225 111.338 37.5706 110.414 37.5706ZM110.414 39.7509C110.136 39.7509 109.91 39.5247 109.91 39.2468C109.91 38.9689 110.136 38.7427 110.414 38.7427C110.692 38.7427 110.918 38.9689 110.918 39.2468C110.918 39.5247 110.692 39.7509 110.414 39.7509Z" fill="#FFF0F0"/>
</g>
<g clip-path="url(#clip1)" filter="url(#filter2_d)">
<path d="M51.4305 144.504C51.4304 144.504 51.4304 144.504 51.4304 144.504L51.429 144.502L48.8472 144.134C48.4843 144.082 48.232 143.746 48.2837 143.383C48.3085 143.209 48.4016 143.052 48.5425 142.946L50.6292 141.381C50.9225 141.161 50.9819 140.745 50.762 140.452L48.3726 137.266C48.1527 136.972 47.7367 136.913 47.4434 137.133L45.3573 138.698C45.0653 138.92 44.649 138.863 44.4274 138.571C44.3198 138.429 44.2736 138.25 44.2993 138.074L44.6684 135.492C44.7204 135.129 44.4684 134.792 44.1056 134.74C44.1054 134.74 44.1051 134.74 44.1049 134.74L40.165 134.177C39.8022 134.125 39.4658 134.377 39.4137 134.74C39.4137 134.74 39.4137 134.74 39.4137 134.74L39.0447 137.322C38.993 137.685 38.6569 137.937 38.294 137.886C38.1196 137.861 37.9623 137.768 37.8566 137.627L36.2922 135.54C36.0723 135.247 35.6563 135.187 35.363 135.407L33.3685 136.904C32.4662 136.808 31.5562 136.808 30.6539 136.904C24.7446 137.579 20.1106 142.292 19.5346 148.212C19.5166 148.4 19.51 148.586 19.5007 148.773H19.3016C18.9867 148.773 18.7155 148.995 18.6525 149.304L18.1938 151.485L16.3567 150.218C16.093 150.036 15.7369 150.068 15.5104 150.295L13.5193 152.286C13.2931 152.512 13.2607 152.868 13.4423 153.131L14.7033 154.965L12.5217 155.424C12.2165 155.491 11.9993 155.761 12 156.074V158.729C11.9998 159.042 12.2198 159.314 12.527 159.378L14.7086 159.837L13.4476 161.671C13.2661 161.934 13.2984 162.29 13.5246 162.516L15.5157 164.508C15.7422 164.734 16.0983 164.766 16.362 164.585L18.1958 163.32L18.6545 165.502C18.7174 165.81 18.9887 166.032 19.3036 166.033H21.9585C22.2724 166.033 22.5435 165.813 22.6083 165.506L23.0669 163.324L24.9008 164.585C25.1643 164.767 25.5199 164.734 25.7463 164.508L26.7771 163.474V165.366C26.7801 166.31 27.2859 167.181 28.1045 167.652V171.339C28.1045 172.805 29.2932 173.994 30.7594 173.994H33.4143C34.8806 173.994 36.0692 172.805 36.0692 171.339V167.652C36.8878 167.181 37.3937 166.31 37.3966 165.366V162.739C37.4146 161.633 37.9929 160.613 38.9318 160.029C39.4826 159.672 40.005 159.273 40.4942 158.835L39.6088 157.846C39.1712 158.238 38.7036 158.596 38.2104 158.915C36.8925 159.742 36.0857 161.183 36.0692 162.739V165.366C36.0692 166.099 35.4749 166.693 34.7418 166.693H29.432C28.6988 166.693 28.1045 166.099 28.1045 165.366V162.684C28.0892 161.157 27.2951 159.744 25.9992 158.938C20.7386 155.632 19.1537 148.688 22.4592 143.427C24.5101 140.163 28.0894 138.177 31.9442 138.163C31.9343 138.187 31.9256 138.211 31.9183 138.235C31.8936 138.41 31.9393 138.587 32.0451 138.727L33.6094 140.813C33.7744 141.027 33.7902 141.32 33.6493 141.55C33.5135 141.782 33.2511 141.908 32.9855 141.869L30.4037 141.5C30.0408 141.448 29.7045 141.7 29.6524 142.063C29.6524 142.063 29.6523 142.064 29.6523 142.064L29.0888 146.006C29.0368 146.368 29.2888 146.705 29.6516 146.757C29.6518 146.757 29.6521 146.757 29.6523 146.757L32.2342 147.126C32.5971 147.178 32.8494 147.514 32.7977 147.877C32.7729 148.051 32.6797 148.208 32.5389 148.314L30.4528 149.878C30.1595 150.098 30.1001 150.514 30.32 150.808L32.7094 153.994C32.9294 154.287 33.3454 154.346 33.6386 154.126L35.7254 152.562C36.0189 152.342 36.4349 152.402 36.6544 152.696C36.7595 152.836 36.8047 153.013 36.78 153.186L36.4117 155.768C36.3596 156.131 36.6115 156.468 36.9743 156.52C36.9744 156.52 36.9744 156.52 36.9745 156.52L40.917 157.083C40.948 157.087 40.9793 157.089 41.0106 157.089C41.3411 157.09 41.6214 156.847 41.6683 156.52L42.0367 153.938C42.0884 153.575 42.4245 153.323 42.7874 153.374C42.9618 153.399 43.1191 153.492 43.2248 153.633L44.7898 155.719C45.0098 156.012 45.4258 156.072 45.719 155.852L48.9049 153.463C49.1982 153.243 49.2576 152.827 49.0376 152.533L47.4733 150.447C47.3091 150.233 47.2932 149.941 47.4334 149.711C47.5663 149.476 47.8311 149.349 48.0972 149.392L50.679 149.76C51.0418 149.812 51.3783 149.56 51.4304 149.198C51.4304 149.198 51.4304 149.198 51.4304 149.197L51.9932 145.255C52.0453 144.892 51.7934 144.556 51.4305 144.504ZM29.432 168.021H34.7418V169.348H29.432V168.021ZM29.432 170.676H34.7418V171.339C34.7418 172.072 34.1475 172.667 33.4143 172.667H30.7594C30.0263 172.667 29.432 172.072 29.432 171.339V170.676ZM24.1481 159.23C24.5105 159.526 24.8891 159.802 25.2824 160.056C25.9095 160.452 26.3816 161.052 26.6198 161.754L25.1961 163.175L23.8176 162.225C23.2139 161.809 22.3873 161.961 21.9713 162.565C21.8715 162.71 21.8015 162.873 21.7653 163.045L21.4175 164.702H19.8399L19.4921 163.047C19.3411 162.33 18.6371 161.871 17.9197 162.022C17.7477 162.058 17.5846 162.128 17.4399 162.228L16.0606 163.175L14.8513 161.969L15.8011 160.591C16.2175 159.988 16.0659 159.161 15.4625 158.744C15.3176 158.644 15.1543 158.574 14.9821 158.538L13.3274 158.19V156.613L14.9821 156.264C15.6993 156.112 16.1574 155.407 16.0053 154.69C15.9692 154.52 15.9001 154.359 15.8018 154.215L14.8513 152.833L16.0606 151.627L17.4405 152.577C18.0444 152.993 18.871 152.84 19.2866 152.236C19.3861 152.092 19.456 151.929 19.4921 151.757L19.6082 151.205C19.7146 151.969 19.8907 152.723 20.1346 153.455C17.9507 153.716 16.3913 155.697 16.6517 157.881C16.912 160.065 18.8936 161.624 21.0775 161.364C22.3921 161.207 23.5429 160.407 24.1481 159.23ZM23.1173 158.294C22.6217 159.672 21.1032 160.387 19.7256 159.892C18.3479 159.396 17.6329 157.877 18.1285 156.5C18.5076 155.446 19.5083 154.744 20.6283 154.746C20.6369 154.746 20.6449 154.746 20.6535 154.746C21.2639 156.062 22.0974 157.263 23.1173 158.294ZM50.2065 148.351L48.2817 148.076C47.193 147.92 46.1845 148.677 46.029 149.765C45.9543 150.288 46.0904 150.819 46.4073 151.242L47.5735 152.797L45.4496 154.39L44.2827 152.835C43.623 151.955 42.375 151.777 41.4952 152.437C41.0727 152.754 40.7934 153.225 40.7186 153.748L40.4498 155.675L37.8221 155.3L38.0969 153.375C38.2528 152.286 37.4966 151.277 36.408 151.122C35.8849 151.047 35.3536 151.183 34.9309 151.5L33.3758 152.666L31.7829 150.542L33.3373 149.375C34.2172 148.716 34.3956 147.468 33.7359 146.588C33.4191 146.165 32.9475 145.886 32.4247 145.811L30.4999 145.536L30.8756 142.909L32.8004 143.183C33.889 143.339 34.8978 142.583 35.0536 141.495C35.1285 140.972 34.9925 140.44 34.6754 140.018L33.5052 138.461L35.6291 136.868L36.796 138.423C37.4557 139.303 38.7038 139.482 39.5835 138.822C40.006 138.505 40.2853 138.033 40.3602 137.511L40.6349 135.586L43.2626 135.961L42.9878 137.886C42.8323 138.974 43.5888 139.983 44.6775 140.138C45.2003 140.213 45.7313 140.077 46.1538 139.76L47.7089 138.594L49.3018 140.718L47.7467 141.885C46.8669 142.544 46.6884 143.792 47.3481 144.672C47.6649 145.095 48.1366 145.374 48.6593 145.449L50.5841 145.724L50.2065 148.351Z" fill="#FAFEFF"/>
<path d="M40.5401 140.32C37.6076 140.32 35.2303 142.697 35.2303 145.629C35.2303 148.562 37.6076 150.939 40.5401 150.939C43.4725 150.939 45.8498 148.562 45.8498 145.629C45.8465 142.698 43.4712 140.323 40.5401 140.32ZM40.5401 149.612C38.3406 149.612 36.5577 147.829 36.5577 145.629C36.5577 143.43 38.3406 141.647 40.5401 141.647C42.7395 141.647 44.5224 143.43 44.5224 145.629C44.5198 147.828 42.7384 149.609 40.5401 149.612Z" fill="#FAFEFF"/>
<path d="M32.7506 163.375H31.4232V165.366H32.7506V163.375Z" fill="#FAFEFF"/>
<path d="M29.1838 156.856C25.0865 155.256 23.0626 150.637 24.6633 146.539C25.2835 144.952 26.3966 143.605 27.8391 142.697L27.1296 141.574C22.7875 144.309 21.485 150.047 24.2205 154.389C25.2799 156.071 26.8505 157.368 28.7019 158.091C30.3406 158.719 31.4228 160.292 31.4232 162.047H32.7506C32.7527 159.745 31.3338 157.68 29.1838 156.856Z" fill="#FAFEFF"/>
<path d="M49.3436 158.729H44.6976V160.056H49.3436V158.729Z" fill="#FAFEFF"/>
<path d="M44.4588 162.2L43.6091 163.22L47.5917 166.538L48.4414 165.519L44.4588 162.2Z" fill="#FAFEFF"/>
<path d="M42.0427 164.038H40.7153V168.684H42.0427V164.038Z" fill="#FAFEFF"/>
<path d="M17.9871 144.146L12.6777 145.473L12.9995 146.76L18.3089 145.433L17.9871 144.146Z" fill="#FAFEFF"/>
<path d="M14.5514 137.614L13.7803 138.694L18.426 142.012L19.1971 140.932L14.5514 137.614Z" fill="#FAFEFF"/>
<path d="M20.7531 134.006L19.4671 134.334L20.8246 139.644L22.1106 139.315L20.7531 134.006Z" fill="#FAFEFF"/>
</g>
<g filter="url(#filter3_dd)">
<path d="M107.72 221.114C82.5104 217.736 59.5354 204.88 43.4708 185.16L44.2461 184.529C60.1501 204.051 82.8953 216.779 107.853 220.123L107.72 221.114Z" fill="#F0FCFF"/>
</g>
<g filter="url(#filter4_dd)">
<path d="M107.72 221.114C82.5104 217.736 59.5354 204.88 43.4708 185.16L44.2461 184.529C60.1501 204.051 82.8953 216.779 107.853 220.123L107.72 221.114Z" fill="#F0FCFF"/>
</g>
<g filter="url(#filter5_dd)">
<path d="M115.878 221.869C90.4763 220.566 66.526 209.633 48.9011 191.295L49.6221 190.602C67.0707 208.756 90.7815 219.58 115.929 220.87L115.878 221.869Z" fill="#F0FCFF"/>
</g>
<g filter="url(#filter6_dd)">
<path d="M21.2904 114.384C23.2274 89.0236 34.7554 65.3538 53.5281 48.1926L54.2028 48.9306C35.6178 65.9203 24.2051 89.3533 22.2875 114.461L21.2904 114.384Z" fill="#FFF0FD"/>
</g>
<g filter="url(#filter7_dd)">
<path d="M21.2904 114.384C23.2274 89.0236 34.7554 65.3538 53.5281 48.1926L54.2028 48.9306C35.6178 65.9203 24.2051 89.3533 22.2875 114.461L21.2904 114.384Z" fill="#FFF0FD"/>
</g>
<g filter="url(#filter8_dd)">
<path d="M132.211 22.6305C157.486 25.482 180.724 37.8572 197.196 57.2374L196.434 57.885C180.126 38.6986 157.121 26.4472 132.099 23.6241L132.211 22.6305Z" fill="#FFFAF0"/>
</g>
<g filter="url(#filter9_dd)">
<path d="M132.1 22.618C157.378 25.4414 180.63 37.7906 197.124 57.1525L196.362 57.8009C180.033 38.6327 157.014 26.407 131.989 23.6118L132.1 22.618Z" fill="#FFFAF0"/>
</g>
<g filter="url(#filter10_dd)">
<path d="M220.81 128.168C219.241 153.554 208.058 177.389 189.536 194.82L188.851 194.092C207.187 176.835 218.258 153.238 219.812 128.106L220.81 128.168Z" fill="#F5FFF0"/>
</g>
<g filter="url(#filter11_dd)">
<path d="M220.81 128.168C219.241 153.554 208.058 177.389 189.536 194.82L188.851 194.092C207.187 176.835 218.258 153.238 219.812 128.106L220.81 128.168Z" fill="#F5FFF0"/>
</g>
<g filter="url(#filter12_d)">
<path d="M167.433 216.633C168.63 212.707 168.265 208.47 166.414 204.806C166.11 205.004 165.754 205.11 165.391 205.109C164.226 205.109 162.883 204.792 161.506 204.208L160.786 206.727C160.73 206.922 160.739 207.13 160.812 207.319C160.884 207.508 161.016 207.669 161.188 207.777L163.841 209.45L166.107 213.983C165.774 216.278 164.88 218.455 163.504 220.322C162.129 222.189 160.314 223.687 158.22 224.685L158.567 222.43L161.85 219.147C161.953 219.044 162.031 218.919 162.077 218.781L163.577 214.281C163.626 214.134 163.638 213.978 163.612 213.826C163.586 213.674 163.522 213.531 163.428 213.409L159.928 208.909C159.814 208.763 159.66 208.654 159.484 208.595L154.984 207.095C154.947 207.083 154.91 207.073 154.871 207.065L150.278 206.146L149.844 205.422H150.188C150.4 205.422 150.607 205.349 150.773 205.216L153.057 203.39L157.781 202.917C157.919 202.903 158.051 202.859 158.17 202.788C158.289 202.717 158.39 202.621 158.467 202.506C156.456 201.087 154.944 199.352 154.275 197.681C154.179 197.443 154.134 197.187 154.141 196.931C154.148 196.674 154.208 196.422 154.317 196.19C153.611 196.095 152.9 196.047 152.188 196.047C143.399 196.047 136.25 203.196 136.25 211.984C136.251 214.586 136.888 217.147 138.107 219.446C139.326 221.744 141.089 223.709 143.243 225.168C144.523 226.054 145.933 226.737 147.422 227.194C147.438 227.199 147.452 227.204 147.468 227.208C147.535 227.229 147.603 227.249 147.671 227.269C151.028 228.26 154.617 228.12 157.885 226.868C160.147 225.997 162.182 224.622 163.836 222.849C165.49 221.076 166.72 218.951 167.433 216.633L167.433 216.633ZM151.25 226.015C150.19 225.945 149.142 225.755 148.125 225.448V223.984C148.125 223.809 148.076 223.636 147.983 223.487L145.483 219.487C145.377 219.319 145.22 219.188 145.036 219.114L142.939 218.275L141.577 214.188C141.538 214.071 141.476 213.963 141.396 213.87C141.315 213.777 141.217 213.701 141.107 213.646L138.127 212.156C138.126 212.099 138.125 212.042 138.125 211.984C138.122 209.016 139.063 206.124 140.812 203.727L141.889 205.476C141.915 205.517 141.944 205.557 141.976 205.595L144.976 209.095C145.069 209.203 145.186 209.29 145.318 209.346L148.503 210.711L149.722 213.15L149.257 216.868C149.232 217.069 149.273 217.273 149.374 217.449L151.25 220.733V226.015Z" fill="#F5FFF0"/>
<path d="M159.488 202.066C161.539 203.405 163.691 204.172 165.391 204.172C165.622 204.172 165.846 204.086 166.018 203.931C166.19 203.776 166.299 203.563 166.323 203.332L167.09 196.043C165.981 196.261 164.83 196.041 163.88 195.428C162.93 194.816 162.254 193.859 161.994 192.759L155.577 196.156C155.373 196.265 155.215 196.445 155.136 196.662C155.056 196.879 155.059 197.118 155.145 197.333C155.799 198.968 157.382 200.693 159.488 202.066Z" fill="#F5FFF0"/>
<path d="M166.25 195.188C168.148 195.188 169.688 193.649 169.688 191.751C169.688 189.852 168.148 188.313 166.25 188.313C164.352 188.313 162.812 189.852 162.812 191.751C162.812 193.649 164.352 195.188 166.25 195.188Z" fill="#F5FFF0"/>
<path d="M141.25 197.062C141.351 197.062 141.451 197.046 141.547 197.014L143.422 196.389C143.608 196.327 143.771 196.207 143.886 196.048C144.001 195.888 144.062 195.697 144.063 195.5V191.207L146.563 190.493V193.046L145.831 193.411C145.72 193.466 145.62 193.542 145.539 193.635C145.457 193.728 145.395 193.836 145.355 193.953C145.316 194.071 145.3 194.194 145.308 194.318C145.317 194.441 145.35 194.562 145.405 194.672C145.46 194.783 145.537 194.882 145.631 194.963C145.724 195.044 145.833 195.105 145.95 195.144C146.068 195.182 146.192 195.197 146.315 195.188C146.439 195.179 146.559 195.145 146.669 195.089L147.919 194.464C148.075 194.386 148.206 194.266 148.297 194.118C148.389 193.97 148.437 193.799 148.438 193.625V189.25C148.438 189.105 148.404 188.962 148.339 188.832C148.274 188.702 148.18 188.589 148.064 188.501C147.949 188.414 147.814 188.355 147.671 188.328C147.529 188.302 147.382 188.309 147.242 188.349L142.867 189.599C142.671 189.655 142.499 189.773 142.376 189.936C142.254 190.098 142.187 190.296 142.188 190.5V194.824L140.953 195.236C140.742 195.306 140.563 195.449 140.447 195.64C140.332 195.83 140.289 196.056 140.324 196.275C140.36 196.495 140.473 196.695 140.642 196.839C140.812 196.983 141.027 197.063 141.25 197.062Z" fill="#F5FFF0"/>
<path d="M174.339 195.867C174.305 195.749 174.248 195.638 174.172 195.542C174.095 195.445 174 195.365 173.893 195.305C173.785 195.246 173.667 195.208 173.544 195.194C173.422 195.18 173.298 195.19 173.18 195.224L170.992 195.849C170.796 195.905 170.624 196.023 170.501 196.186C170.379 196.348 170.313 196.546 170.313 196.75V201.074L169.078 201.486C168.961 201.524 168.852 201.586 168.759 201.666C168.665 201.747 168.589 201.845 168.533 201.955C168.478 202.066 168.445 202.186 168.436 202.309C168.427 202.432 168.442 202.556 168.482 202.673C168.521 202.79 168.582 202.898 168.663 202.991C168.744 203.084 168.843 203.161 168.953 203.216C169.064 203.271 169.184 203.303 169.307 203.312C169.431 203.32 169.554 203.304 169.671 203.264L171.546 202.639C171.733 202.577 171.895 202.458 172.01 202.298C172.126 202.139 172.187 201.947 172.188 201.75V197.457L173.695 197.026C173.814 196.993 173.924 196.936 174.021 196.859C174.117 196.783 174.197 196.688 174.257 196.58C174.317 196.472 174.355 196.354 174.369 196.232C174.383 196.109 174.373 195.986 174.339 195.867Z" fill="#F5FFF0"/>
<path d="M173.065 219.127C172.949 219.039 172.814 218.98 172.672 218.953C172.529 218.927 172.382 218.934 172.242 218.974L167.867 220.224C167.672 220.28 167.499 220.398 167.377 220.56C167.254 220.723 167.188 220.921 167.188 221.125V225.449L165.953 225.861C165.836 225.899 165.727 225.96 165.634 226.041C165.54 226.122 165.464 226.22 165.408 226.33C165.353 226.441 165.32 226.561 165.311 226.684C165.302 226.807 165.317 226.931 165.357 227.048C165.396 227.165 165.457 227.273 165.538 227.366C165.619 227.459 165.718 227.536 165.828 227.591C165.939 227.646 166.059 227.678 166.182 227.687C166.306 227.695 166.429 227.679 166.546 227.639L168.421 227.014C168.608 226.952 168.77 226.833 168.885 226.673C169.001 226.514 169.062 226.322 169.063 226.125V221.832L171.563 221.118V223.671L170.831 224.036C170.72 224.091 170.62 224.167 170.539 224.26C170.457 224.353 170.395 224.461 170.355 224.578C170.316 224.696 170.3 224.819 170.308 224.943C170.317 225.066 170.35 225.187 170.405 225.297C170.46 225.408 170.537 225.507 170.631 225.588C170.724 225.669 170.833 225.73 170.95 225.769C171.068 225.807 171.192 225.822 171.315 225.813C171.439 225.804 171.559 225.77 171.669 225.714L172.919 225.089C173.075 225.011 173.206 224.891 173.297 224.743C173.389 224.595 173.438 224.424 173.438 224.25V219.875C173.438 219.73 173.404 219.587 173.339 219.457C173.274 219.327 173.18 219.214 173.065 219.127Z" fill="#F5FFF0"/>
</g>
<defs>
<filter id="filter0_d" x="189" y="59" width="72" height="72" filterUnits="userSpaceOnUse" color-interpolation-filters="sRGB">
<feFlood flood-opacity="0" result="BackgroundImageFix"/>
<feColorMatrix in="SourceAlpha" type="matrix" values="0 0 0 0 0 0 0 0 0 0 0 0 0 0 0 0 0 0 127 0"/>
<feOffset dx="4" dy="4"/>
<feGaussianBlur stdDeviation="8"/>
<feColorMatrix type="matrix" values="0 0 0 0 0.94 0 0 0 0 0.625372 0 0 0 0 0 0 0 0 0.4 0"/>
<feBlend mode="normal" in2="BackgroundImageFix" result="effect1_dropShadow"/>
<feBlend mode="normal" in="SourceGraphic" in2="effect1_dropShadow" result="shape"/>
</filter>
<filter id="filter1_d" x="64" y="-2" width="72" height="72" filterUnits="userSpaceOnUse" color-interpolation-filters="sRGB">
<feFlood flood-opacity="0" result="BackgroundImageFix"/>
<feColorMatrix in="SourceAlpha" type="matrix" values="0 0 0 0 0 0 0 0 0 0 0 0 0 0 0 0 0 0 127 0"/>
<feOffset dx="4" dy="4"/>
<feGaussianBlur stdDeviation="8"/>
<feColorMatrix type="matrix" values="0 0 0 0 0.94 0 0 0 0 0 0 0 0 0 0.846 0 0 0 0.4 0"/>
<feBlend mode="normal" in2="BackgroundImageFix" result="effect1_dropShadow"/>
<feBlend mode="normal" in="SourceGraphic" in2="effect1_dropShadow" result="shape"/>
</filter>
<filter id="filter2_d" x="0" y="122" width="72" height="72" filterUnits="userSpaceOnUse" color-interpolation-filters="sRGB">
<feFlood flood-opacity="0" result="BackgroundImageFix"/>
<feColorMatrix in="SourceAlpha" type="matrix" values="0 0 0 0 0 0 0 0 0 0 0 0 0 0 0 0 0 0 127 0"/>
<feOffset dx="4" dy="4"/>
<feGaussianBlur stdDeviation="8"/>
<feColorMatrix type="matrix" values="0 0 0 0 0 0 0 0 0 0.752001 0 0 0 0 0.94 0 0 0 0.4 0"/>
<feBlend mode="normal" in2="BackgroundImageFix" result="effect1_dropShadow"/>
<feBlend mode="normal" in="SourceGraphic" in2="effect1_dropShadow" result="shape"/>
</filter>
<filter id="filter3_dd" x="37.4708" y="178.529" width="80.3818" height="52.5856" filterUnits="userSpaceOnUse" color-interpolation-filters="sRGB">
<feFlood flood-opacity="0" result="BackgroundImageFix"/>
<feColorMatrix in="SourceAlpha" type="matrix" values="0 0 0 0 0 0 0 0 0 0 0 0 0 0 0 0 0 0 127 0"/>
<feOffset dx="2" dy="2"/>
<feGaussianBlur stdDeviation="4"/>
<feColorMatrix type="matrix" values="0 0 0 0 0 0 0 0 0 0.8 0 0 0 0 1 0 0 0 1 0"/>
<feBlend mode="normal" in2="BackgroundImageFix" result="effect1_dropShadow"/>
<feColorMatrix in="SourceAlpha" type="matrix" values="0 0 0 0 0 0 0 0 0 0 0 0 0 0 0 0 0 0 127 0"/>
<feOffset dx="2" dy="2"/>
<feGaussianBlur stdDeviation="4"/>
<feColorMatrix type="matrix" values="0 0 0 0 0 0 0 0 0 0.8 0 0 0 0 1 0 0 0 1 0"/>
<feBlend mode="normal" in2="effect1_dropShadow" result="effect2_dropShadow"/>
<feBlend mode="normal" in="SourceGraphic" in2="effect2_dropShadow" result="shape"/>
</filter>
<filter id="filter4_dd" x="37.4708" y="178.529" width="80.3818" height="52.5856" filterUnits="userSpaceOnUse" color-interpolation-filters="sRGB">
<feFlood flood-opacity="0" result="BackgroundImageFix"/>
<feColorMatrix in="SourceAlpha" type="matrix" values="0 0 0 0 0 0 0 0 0 0 0 0 0 0 0 0 0 0 127 0"/>
<feOffset dx="2" dy="2"/>
<feGaussianBlur stdDeviation="4"/>
<feColorMatrix type="matrix" values="0 0 0 0 0 0 0 0 0 0.8 0 0 0 0 1 0 0 0 1 0"/>
<feBlend mode="normal" in2="BackgroundImageFix" result="effect1_dropShadow"/>
<feColorMatrix in="SourceAlpha" type="matrix" values="0 0 0 0 0 0 0 0 0 0 0 0 0 0 0 0 0 0 127 0"/>
<feOffset dx="2" dy="2"/>
<feGaussianBlur stdDeviation="4"/>
<feColorMatrix type="matrix" values="0 0 0 0 0 0 0 0 0 0.8 0 0 0 0 1 0 0 0 1 0"/>
<feBlend mode="normal" in2="effect1_dropShadow" result="effect2_dropShadow"/>
<feBlend mode="normal" in="SourceGraphic" in2="effect2_dropShadow" result="shape"/>
</filter>
<filter id="filter5_dd" x="42.9011" y="184.602" width="83.0278" height="47.267" filterUnits="userSpaceOnUse" color-interpolation-filters="sRGB">
<feFlood flood-opacity="0" result="BackgroundImageFix"/>
<feColorMatrix in="SourceAlpha" type="matrix" values="0 0 0 0 0 0 0 0 0 0 0 0 0 0 0 0 0 0 127 0"/>
<feOffset dx="2" dy="2"/>
<feGaussianBlur stdDeviation="4"/>
<feColorMatrix type="matrix" values="0 0 0 0 0 0 0 0 0 0.8 0 0 0 0 1 0 0 0 1 0"/>
<feBlend mode="normal" in2="BackgroundImageFix" result="effect1_dropShadow"/>
<feColorMatrix in="SourceAlpha" type="matrix" values="0 0 0 0 0 0 0 0 0 0 0 0 0 0 0 0 0 0 127 0"/>
<feOffset dx="2" dy="2"/>
<feGaussianBlur stdDeviation="4"/>
<feColorMatrix type="matrix" values="0 0 0 0 0 0 0 0 0 0.8 0 0 0 0 1 0 0 0 1 0"/>
<feBlend mode="normal" in2="effect1_dropShadow" result="effect2_dropShadow"/>
<feBlend mode="normal" in="SourceGraphic" in2="effect2_dropShadow" result="shape"/>
</filter>
<filter id="filter6_dd" x="15.2904" y="42.1926" width="48.9124" height="82.268" filterUnits="userSpaceOnUse" color-interpolation-filters="sRGB">
<feFlood flood-opacity="0" result="BackgroundImageFix"/>
<feColorMatrix in="SourceAlpha" type="matrix" values="0 0 0 0 0 0 0 0 0 0 0 0 0 0 0 0 0 0 127 0"/>
<feOffset dx="2" dy="2"/>
<feGaussianBlur stdDeviation="4"/>
<feColorMatrix type="matrix" values="0 0 0 0 0.941176 0 0 0 0 0 0 0 0 0 0.847059 0 0 0 1 0"/>
<feBlend mode="normal" in2="BackgroundImageFix" result="effect1_dropShadow"/>
<feColorMatrix in="SourceAlpha" type="matrix" values="0 0 0 0 0 0 0 0 0 0 0 0 0 0 0 0 0 0 127 0"/>
<feOffset dx="2" dy="2"/>
<feGaussianBlur stdDeviation="4"/>
<feColorMatrix type="matrix" values="0 0 0 0 0.94 0 0 0 0 0 0 0 0 0 0.846 0 0 0 1 0"/>
<feBlend mode="normal" in2="effect1_dropShadow" result="effect2_dropShadow"/>
<feBlend mode="normal" in="SourceGraphic" in2="effect2_dropShadow" result="shape"/>
</filter>
<filter id="filter7_dd" x="15.2904" y="42.1926" width="48.9124" height="82.268" filterUnits="userSpaceOnUse" color-interpolation-filters="sRGB">
<feFlood flood-opacity="0" result="BackgroundImageFix"/>
<feColorMatrix in="SourceAlpha" type="matrix" values="0 0 0 0 0 0 0 0 0 0 0 0 0 0 0 0 0 0 127 0"/>
<feOffset dx="2" dy="2"/>
<feGaussianBlur stdDeviation="4"/>
<feColorMatrix type="matrix" values="0 0 0 0 0.941176 0 0 0 0 0 0 0 0 0 0.847059 0 0 0 1 0"/>
<feBlend mode="normal" in2="BackgroundImageFix" result="effect1_dropShadow"/>
<feColorMatrix in="SourceAlpha" type="matrix" values="0 0 0 0 0 0 0 0 0 0 0 0 0 0 0 0 0 0 127 0"/>
<feOffset dx="2" dy="2"/>
<feGaussianBlur stdDeviation="4"/>
<feColorMatrix type="matrix" values="0 0 0 0 0.94 0 0 0 0 0 0 0 0 0 0.846 0 0 0 1 0"/>
<feBlend mode="normal" in2="effect1_dropShadow" result="effect2_dropShadow"/>
<feBlend mode="normal" in="SourceGraphic" in2="effect2_dropShadow" result="shape"/>
</filter>
<filter id="filter8_dd" x="126.099" y="16.6305" width="81.0967" height="51.2546" filterUnits="userSpaceOnUse" color-interpolation-filters="sRGB">
<feFlood flood-opacity="0" result="BackgroundImageFix"/>
<feColorMatrix in="SourceAlpha" type="matrix" values="0 0 0 0 0 0 0 0 0 0 0 0 0 0 0 0 0 0 127 0"/>
<feOffset dx="2" dy="2"/>
<feGaussianBlur stdDeviation="4"/>
<feColorMatrix type="matrix" values="0 0 0 0 1 0 0 0 0 0.721569 0 0 0 0 0 0 0 0 1 0"/>
<feBlend mode="normal" in2="BackgroundImageFix" result="effect1_dropShadow"/>
<feColorMatrix in="SourceAlpha" type="matrix" values="0 0 0 0 0 0 0 0 0 0 0 0 0 0 0 0 0 0 127 0"/>
<feOffset dx="2" dy="2"/>
<feGaussianBlur stdDeviation="4"/>
<feColorMatrix type="matrix" values="0 0 0 0 1 0 0 0 0 0.72 0 0 0 0 0 0 0 0 1 0"/>
<feBlend mode="normal" in2="effect1_dropShadow" result="effect2_dropShadow"/>
<feBlend mode="normal" in="SourceGraphic" in2="effect2_dropShadow" result="shape"/>
</filter>
<filter id="filter9_dd" x="125.989" y="16.618" width="81.1341" height="51.1829" filterUnits="userSpaceOnUse" color-interpolation-filters="sRGB">
<feFlood flood-opacity="0" result="BackgroundImageFix"/>
<feColorMatrix in="SourceAlpha" type="matrix" values="0 0 0 0 0 0 0 0 0 0 0 0 0 0 0 0 0 0 127 0"/>
<feOffset dx="2" dy="2"/>
<feGaussianBlur stdDeviation="4"/>
<feColorMatrix type="matrix" values="0 0 0 0 1 0 0 0 0 0.721569 0 0 0 0 0 0 0 0 1 0"/>
<feBlend mode="normal" in2="BackgroundImageFix" result="effect1_dropShadow"/>
<feColorMatrix in="SourceAlpha" type="matrix" values="0 0 0 0 0 0 0 0 0 0 0 0 0 0 0 0 0 0 127 0"/>
<feOffset dx="2" dy="2"/>
<feGaussianBlur stdDeviation="4"/>
<feColorMatrix type="matrix" values="0 0 0 0 1 0 0 0 0 0.72 0 0 0 0 0 0 0 0 1 0"/>
<feBlend mode="normal" in2="effect1_dropShadow" result="effect2_dropShadow"/>
<feBlend mode="normal" in="SourceGraphic" in2="effect2_dropShadow" result="shape"/>
</filter>
<filter id="filter10_dd" x="182.851" y="122.106" width="47.959" height="82.7144" filterUnits="userSpaceOnUse" color-interpolation-filters="sRGB">
<feFlood flood-opacity="0" result="BackgroundImageFix"/>
<feColorMatrix in="SourceAlpha" type="matrix" values="0 0 0 0 0 0 0 0 0 0 0 0 0 0 0 0 0 0 127 0"/>
<feOffset dx="2" dy="2"/>
<feGaussianBlur stdDeviation="4"/>
<feColorMatrix type="matrix" values="0 0 0 0 1 0 0 0 0 0.721569 0 0 0 0 0 0 0 0 1 0"/>
<feBlend mode="normal" in2="BackgroundImageFix" result="effect1_dropShadow"/>
<feColorMatrix in="SourceAlpha" type="matrix" values="0 0 0 0 0 0 0 0 0 0 0 0 0 0 0 0 0 0 127 0"/>
<feOffset dx="2" dy="2"/>
<feGaussianBlur stdDeviation="4"/>
<feColorMatrix type="matrix" values="0 0 0 0 0.30362 0 0 0 0 0.932167 0 0 0 0 0.00783324 0 0 0 1 0"/>
<feBlend mode="normal" in2="effect1_dropShadow" result="effect2_dropShadow"/>
<feBlend mode="normal" in="SourceGraphic" in2="effect2_dropShadow" result="shape"/>
</filter>
<filter id="filter11_dd" x="182.851" y="122.106" width="47.959" height="82.7144" filterUnits="userSpaceOnUse" color-interpolation-filters="sRGB">
<feFlood flood-opacity="0" result="BackgroundImageFix"/>
<feColorMatrix in="SourceAlpha" type="matrix" values="0 0 0 0 0 0 0 0 0 0 0 0 0 0 0 0 0 0 127 0"/>
<feOffset dx="2" dy="2"/>
<feGaussianBlur stdDeviation="4"/>
<feColorMatrix type="matrix" values="0 0 0 0 1 0 0 0 0 0.721569 0 0 0 0 0 0 0 0 1 0"/>
<feBlend mode="normal" in2="BackgroundImageFix" result="effect1_dropShadow"/>
<feColorMatrix in="SourceAlpha" type="matrix" values="0 0 0 0 0 0 0 0 0 0 0 0 0 0 0 0 0 0 127 0"/>
<feOffset dx="2" dy="2"/>
<feGaussianBlur stdDeviation="4"/>
<feColorMatrix type="matrix" values="0 0 0 0 0.30362 0 0 0 0 0.932167 0 0 0 0 0.00783324 0 0 0 1 0"/>
<feBlend mode="normal" in2="effect1_dropShadow" result="effect2_dropShadow"/>
<feBlend mode="normal" in="SourceGraphic" in2="effect2_dropShadow" result="shape"/>
</filter>
<filter id="filter12_d" x="123" y="176" width="72" height="72" filterUnits="userSpaceOnUse" color-interpolation-filters="sRGB">
<feFlood flood-opacity="0" result="BackgroundImageFix"/>
<feColorMatrix in="SourceAlpha" type="matrix" values="0 0 0 0 0 0 0 0 0 0 0 0 0 0 0 0 0 0 127 0"/>
<feOffset dx="4" dy="4"/>
<feGaussianBlur stdDeviation="8"/>
<feColorMatrix type="matrix" values="0 0 0 0 0.301961 0 0 0 0 0.933333 0 0 0 0 0.00784314 0 0 0 0.4 0"/>
<feBlend mode="normal" in2="BackgroundImageFix" result="effect1_dropShadow"/>
<feBlend mode="normal" in="SourceGraphic" in2="effect1_dropShadow" result="shape"/>
</filter>
<clipPath id="clip0">
<rect width="40" height="40" fill="white" transform="translate(76 10)"/>
</clipPath>
<clipPath id="clip1">
<rect width="40" height="40" fill="white" transform="translate(12 134)"/>
</clipPath>
</defs>
</svg>
